<svg xmlns="http://www.w3.org/2000/svg" width="1150.67" height="541.42" viewBox="0 0 1150.67 541.42">
  <g>
    <path d="M1110.7,158.31c-17.85-24.49-40.6-42.19-64-54.83C1032,83.8,1012.19,66,983.45,48.79,913,6.67,826.05,8,762.2,15.54c-13.53,1.6-28,4-42.83,6.81C649.9,3.3,573.12-.3,548,0c-70,.9-136.55,18.91-180.87,34.7-61.07-11.1-140.77-11.45-204,19.39-47.11,23-70.72,49.83-86.88,82.42-57.08,29.26-68,69-74.07,104.69-6.65,39,.89,101.54,31.92,134.35,10.08,10.65,24.16,20.32,41.38,29.21,37,71.24,106.68,94.05,148,102.92,39.71,8.53,86.57,9.92,146-.51,78.85,28.92,138,33.76,183.86,34.21,42.21.4,110.41-4.4,167.22-21.88C761,526.37,805.27,530.9,850,529c106.88-4.58,161.51-45.31,194.73-89.66,15.75-7.5,21.14-13.05,21.14-13.05,42.32-29.35,60.53-66.65,73.66-97.7C1157.7,285.56,1157.26,222.16,1110.7,158.31Z" style="fill: #fff"/>
    <g>
      <path d="M551.21,3c38,0,128.25,6.64,197.55,31.76C823.68,61.93,908.31,75.21,946.91,77.5c11.52.69,42.11,3.87,77.34,18.57,35.62,14.85,63.89,36.39,84,64,21.36,29.3,34.19,60.1,38.13,91.55,3.35,26.71,0,52.92-9.65,75.77-13.33,31.52-31,67.57-72.61,96.41l-.24.16-.2.2c-.06.07-6.71,6.66-26,15-17.78,7.73-50.25,18.61-103.93,26.5C827,481.42,793.79,490,735,511.53c-25.76,9.42-56.81,16.57-92.3,21.24a667.35,667.35,0,0,1-84.43,5.65l-4.89,0c-43.31-.42-103.34-4.71-183.88-34.4-29.94-11-47.27-18.83-61.19-25.09-23.47-10.56-39-17.53-90.79-30-45.77-11-81.87-21.86-110.38-33.18-33.26-13.19-56.42-27-70.82-42.22C18.89,355.07,10.76,328.87,7,310.13c-4.63-23.08-5.29-48-1.81-68.4,3.28-19.28,8.05-39.72,20.6-58.65,14.33-21.62,36.88-38.53,68.92-51.7,51.51-21.18,83.56-29.12,111.85-36.12,11.57-2.87,22.51-5.58,34.17-9,40.14-11.77,53-15.8,81.62-29.89,5.73-2.82,36.72-17.57,84.74-31.29C456.31,11,503.75,3.59,548.08,3l3.13,0h0m0-3L548,0C444.73,1.35,349,39.92,321,53.67S280.68,71.4,239.89,83.38s-74,15.51-146.32,45.22S8.88,202.2,2.23,241.22s.89,101.54,31.92,134.35,99.77,56.31,182.68,76.26,72.27,25.72,151.64,55S507.25,541,553.36,541.4l4.92,0c46.54,0,120.41-6.1,177.76-27.07,59.41-21.73,92.67-30.15,198.19-45.67s131.63-42.41,131.63-42.41c42.32-29.35,60.53-66.65,73.66-97.7,18.18-43,17.74-106.41-28.82-170.26S984.33,76.73,947.09,74.51,825.6,59.43,749.78,31.94C676.53,5.38,583.42,0,551.2,0Z" style="fill: #e9decd"/>
      <path d="M827.74,14.43c61.27,0,113.14,12.43,154.17,36.94,68.75,41.08,85.73,85.54,105.51,153.89,8.93,30.84,10.18,70.31,3.53,111.13-6.14,37.64-18.62,74-34.25,99.74-19.26,31.75-41.16,54.66-68.92,72.12a226.33,226.33,0,0,1-58,25.51c-23.76,6.86-50.66,11-79.94,12.22-6.8.3-13.81.44-20.83.44-83.09,0-163.17-20.38-216.16-33.87-21.41-5.45-38.33-9.75-49.79-11.32a271.16,271.16,0,0,0-37.61-2.66c-30.61,0-65.51,5.28-120.44,18.23-42.17,9.93-79.54,14.76-114.26,14.76a313.88,313.88,0,0,1-66.66-6.79c-29.83-6.42-55.16-16-77.45-29.36-32.33-19.35-56.59-46.06-72.1-79.38-10.6-22.77-23.1-63.16-22.49-126.3.39-39.59,6.47-80.83,15.49-105C84.59,119,106.74,85,164.5,56.81c34.81-17,78.75-26,127.06-26a423.08,423.08,0,0,1,101,12.44c54.59,13.83,94.48,20,129.36,20a242.1,242.1,0,0,0,42.61-3.55C584,56.28,608.77,50.4,635,44.16c41.51-9.86,88.57-21,127.55-25.64a550.84,550.84,0,0,1,65.19-4.09m0-3a560.71,560.71,0,0,0-65.54,4.11C698.35,23.08,614.11,47.91,564,56.77a240.34,240.34,0,0,1-42.08,3.51c-39,0-81.44-8-128.62-19.91A423.12,423.12,0,0,0,291.55,27.84C248,27.85,202.42,35,163.18,54.11,103.61,83.17,81.6,118.4,64.75,163.63S37.43,323.37,71.84,397.29c35.92,77.15,109,101.23,151.64,110.41a317.93,317.93,0,0,0,67.29,6.86c33.1,0,70.84-4.45,114.94-14.84,54.42-12.83,89.21-18.15,119.76-18.15a269.66,269.66,0,0,1,37.2,2.63c39.75,5.44,149.76,45.22,266.36,45.22,7,0,14-.14,21-.44,124.15-5.32,177.8-59.41,209.28-111.29s50.54-145.87,31-213.27S1054,90.91,983.45,48.79C935,19.86,878.86,11.43,827.74,11.43Z" style="fill: #e9decd"/>
    </g>
  </g>
</svg>
