<svg xmlns="http://www.w3.org/2000/svg" width="28.497" height="18.697" viewBox="0 0 28.497 18.697">
  <g id="フリーダイヤルのアイコン" transform="translate(0 -88.032)">
    <path id="パス_1" data-name="パス 1" d="M0,88.032v2.915a16.8,16.8,0,0,1,6.13,1.146q.506.2.982.429a15.533,15.533,0,0,1,2.32-.889,17.058,17.058,0,0,1,4.817-.685A16.809,16.809,0,0,1,20.4,92.093q.506.2.981.429a15.545,15.545,0,0,1,2.32-.889,17.066,17.066,0,0,1,4.791-.685V88.032Z" fill="#656262"/>
    <path id="パス_2" data-name="パス 2" d="M320.59,210.457a3.543,3.543,0,0,0,5.522,2.938,3.535,3.535,0,0,0,1.563-2.938,3.022,3.022,0,0,0-.228-1.114,4.908,4.908,0,0,0-.7-1.2,8.957,8.957,0,0,0-2.61-2.176,9.631,9.631,0,0,0-2.143,1.639,5.322,5.322,0,0,0-1.22,1.867A2.958,2.958,0,0,0,320.59,210.457Z" transform="translate(-302.747 -111.37)" fill="#656262"/>
    <path id="パス_3" data-name="パス 3" d="M24.853,175.586a7.146,7.146,0,0,1,1.628,2.53,4.8,4.8,0,0,1,.284,1.6,5.379,5.379,0,1,1-10.758,0,5.1,5.1,0,0,1,.617-2.358,8.021,8.021,0,0,1,1.625-2.094,11.18,11.18,0,0,1,1.165-.953c-.281-.1-.57-.2-.866-.287a15.238,15.238,0,0,0-4.3-.61,15.027,15.027,0,0,0-5.165.9,10.774,10.774,0,0,1,1.5,1.28,7.15,7.15,0,0,1,1.628,2.53,4.791,4.791,0,0,1,.284,1.6,5.379,5.379,0,1,1-10.758,0,5.1,5.1,0,0,1,.616-2.358,8.023,8.023,0,0,1,1.625-2.094,11.149,11.149,0,0,1,1.164-.953c-.281-.1-.57-.2-.866-.287A15.244,15.244,0,0,0,0,173.409v13.946H28.5V173.409a15.031,15.031,0,0,0-5.139.9A10.768,10.768,0,0,1,24.853,175.586Z" transform="translate(0 -80.625)" fill="#656262"/>
    <path id="パス_4" data-name="パス 4" d="M64.118,210.457a3.543,3.543,0,0,0,5.522,2.938,3.537,3.537,0,0,0,1.563-2.938,3.031,3.031,0,0,0-.228-1.114,4.924,4.924,0,0,0-.7-1.2,8.965,8.965,0,0,0-2.611-2.176,9.622,9.622,0,0,0-2.143,1.639,5.322,5.322,0,0,0-1.22,1.867A2.954,2.954,0,0,0,64.118,210.457Z" transform="translate(-60.549 -111.37)" fill="#656262"/>
  </g>
</svg>
