<svg xmlns="http://www.w3.org/2000/svg" width="17.827" height="25.71" viewBox="0 0 17.827 25.71">
  <path id="phone002_-_E106" data-name="phone002 - E106" d="M1.063-32.3c-1.041.447-2.215.955-3.256,1.382-.953-1.606-1.861-3.232-2.725-4.939-.731-1.463-1.4-2.846-1.972-4.167,1.019-.447,2.237-.955,3.323-1.423L-5.693-48.68a5.04,5.04,0,0,0-3.655.1,4.322,4.322,0,0,0-2.68,4.492l.044.224A33.491,33.491,0,0,0-8.684-33.7a36.783,36.783,0,0,0,6.358,8.882l.155.142A5.068,5.068,0,0,0,3.3-23.66a4.436,4.436,0,0,0,2.459-2.5Z" transform="translate(12.068 48.974)" fill="#656262"/>
</svg>
